<svg width="52" height="51" viewBox="0 0 52 51" fill="none" xmlns="http://www.w3.org/2000/svg">
<path d="M17.8318 41.9668C20.9169 42.0699 23.9914 41.5544 26.8736 40.4508C29.7558 39.3472 32.3872 37.6778 34.6123 35.5414C36.8374 33.405 38.6111 30.8449 39.8284 28.0124C41.0458 25.1799 41.6822 22.1324 41.7 19.0502C43.1138 17.3031 44.1636 15.2915 44.7878 13.1335C44.8344 12.963 44.8306 12.7827 44.777 12.6143C44.7233 12.4459 44.622 12.2965 44.4854 12.1843C44.3487 12.072 44.1824 12.0016 44.0066 11.9815C43.8307 11.9614 43.6528 11.9925 43.4942 12.071C42.7546 12.4265 41.9219 12.5414 41.1134 12.3993C40.3049 12.2573 39.5614 11.8656 38.9877 11.2793C38.2552 10.4784 37.3693 9.83252 36.3823 9.3798C35.3953 8.92709 34.3273 8.6768 33.2417 8.64377C32.156 8.61075 31.0748 8.79565 30.062 9.18753C29.0493 9.57941 28.1256 10.1703 27.3457 10.9252C26.2779 11.9578 25.4957 13.2487 25.0753 14.6724C24.6549 16.0961 24.6104 17.6042 24.9463 19.0502C17.957 19.4668 13.1583 16.1543 9.31936 11.6127C9.20404 11.4822 9.05317 11.3882 8.88519 11.342C8.71722 11.2958 8.5394 11.2994 8.37345 11.3524C8.20751 11.4054 8.06061 11.5056 7.95071 11.6406C7.84081 11.7756 7.77266 11.9396 7.75458 12.1127C7.02324 16.1635 7.5508 20.3409 9.26641 24.0836C10.982 27.8264 13.8035 30.9553 17.3519 33.0502C14.9727 35.7748 11.6315 37.4765 8.02581 37.8002C7.83264 37.8321 7.65431 37.9236 7.5158 38.0618C7.37728 38.2 7.28551 38.378 7.25331 38.5709C7.22112 38.7638 7.25013 38.9619 7.33627 39.1374C7.42241 39.313 7.56137 39.4573 7.73372 39.5502C10.8706 41.1155 14.3251 41.9422 17.8318 41.9668Z" fill="#231F20"/>
</svg>
