<svg width="51" height="51" viewBox="0 0 51 51" fill="none" xmlns="http://www.w3.org/2000/svg">
<path d="M36.2959 7.59183C36.2959 7.31556 36.186 7.05061 35.9904 6.85526C35.7948 6.65991 35.5294 6.55016 35.2527 6.55016H30.0368C27.4103 6.41952 24.8388 7.33223 22.8841 9.08887C20.9294 10.8455 19.7505 13.3033 19.6049 15.9252V21.5502H14.389C14.1123 21.5502 13.8469 21.6599 13.6513 21.8553C13.4557 22.0506 13.3458 22.3156 13.3458 22.5918V28.0085C13.3458 28.2848 13.4557 28.5497 13.6513 28.7451C13.8469 28.9404 14.1123 29.0502 14.389 29.0502H19.6049V43.0085C19.6049 43.2848 19.7148 43.5497 19.9104 43.7451C20.1061 43.9404 20.3714 44.0502 20.6481 44.0502H26.9072C27.1839 44.0502 27.4492 43.9404 27.6449 43.7451C27.8405 43.5497 27.9504 43.2848 27.9504 43.0085V29.0502H33.4167C33.6487 29.0535 33.8752 28.9795 34.0603 28.8399C34.2455 28.7003 34.3788 28.503 34.4391 28.2793L35.9412 22.8627C35.9828 22.7087 35.9883 22.5474 35.9576 22.391C35.9268 22.2346 35.8605 22.0873 35.7637 21.9605C35.667 21.8337 35.5424 21.7308 35.3995 21.6597C35.2567 21.5885 35.0994 21.5511 34.9398 21.5502H27.9504V15.9252C28.0023 15.4095 28.2448 14.9316 28.6306 14.5849C29.0164 14.2382 29.5178 14.0476 30.0368 14.0502H35.2527C35.5294 14.0502 35.7948 13.9404 35.9904 13.7451C36.186 13.5497 36.2959 13.2848 36.2959 13.0085V7.59183Z" fill="#231F20"/>
</svg>
