<svg width="51" height="51" viewBox="0 0 51 51" fill="none" xmlns="http://www.w3.org/2000/svg">
<path d="M36.2959 8.09183C36.2959 7.81556 36.186 7.55061 35.9904 7.35526C35.7948 7.15991 35.5294 7.05016 35.2527 7.05016H30.0368C27.4103 6.91952 24.8388 7.83223 22.8841 9.58887C20.9294 11.3455 19.7505 13.8033 19.6049 16.4252V22.0502H14.389C14.1123 22.0502 13.8469 22.1599 13.6513 22.3553C13.4557 22.5506 13.3458 22.8156 13.3458 23.0918V28.5085C13.3458 28.7848 13.4557 29.0497 13.6513 29.2451C13.8469 29.4404 14.1123 29.5502 14.389 29.5502H19.6049V43.5085C19.6049 43.7848 19.7148 44.0497 19.9104 44.2451C20.1061 44.4404 20.3714 44.5502 20.6481 44.5502H26.9072C27.1839 44.5502 27.4492 44.4404 27.6449 44.2451C27.8405 44.0497 27.9504 43.7848 27.9504 43.5085V29.5502H33.4167C33.6487 29.5535 33.8752 29.4795 34.0603 29.3399C34.2455 29.2003 34.3788 29.003 34.4391 28.7793L35.9412 23.3627C35.9828 23.2087 35.9883 23.0474 35.9576 22.891C35.9268 22.7346 35.8605 22.5873 35.7637 22.4605C35.667 22.3337 35.5424 22.2308 35.3995 22.1597C35.2567 22.0885 35.0994 22.0511 34.9398 22.0502H27.9504V16.4252C28.0023 15.9095 28.2448 15.4316 28.6306 15.0849C29.0164 14.7382 29.5178 14.5476 30.0368 14.5502H35.2527C35.5294 14.5502 35.7948 14.4404 35.9904 14.2451C36.186 14.0497 36.2959 13.7848 36.2959 13.5085V8.09183Z" fill="#231F20"/>
</svg>
