<svg width="51" height="36" viewBox="0 0 51 36" fill="none" xmlns="http://www.w3.org/2000/svg">
<path d="M49.1535 6.18925C48.5587 4.08079 46.9121 2.42716 44.7911 1.84261C40.8858 0.800099 25.1862 0.800099 25.1862 0.800099C25.1862 0.800099 9.51633 0.775091 5.5703 1.84261C3.46032 2.42872 1.80584 4.08079 1.2173 6.18925C0.476929 10.1858 0.109092 14.2308 0.12631 18.2945C0.118484 22.3317 0.484756 26.3704 1.2173 30.342C1.80584 32.4504 3.46032 34.1041 5.5703 34.698C9.47563 35.7405 25.1862 35.7405 25.1862 35.7405C25.1862 35.7405 40.8467 35.7405 44.7911 34.698C46.9121 34.1041 48.5587 32.452 49.1535 30.342C49.872 26.3704 50.2226 22.3317 50.1976 18.2945C50.2226 14.2308 49.8798 10.1858 49.1535 6.18925ZM20.1711 25.7765V10.7797L33.2395 18.2945L20.1711 25.7765Z" fill="black"/>
</svg>
