<svg width="30" height="30" viewBox="0 0 30 30" fill="none" xmlns="http://www.w3.org/2000/svg">
<path d="M29.9999 7.54801V30L22.4999 27.3334L20.4999 16.1073L22.4999 4.88135L29.9999 7.54801Z" fill="#FEE191"/>
<path d="M22.5 4.88135V27.3334L15 30L13.6666 18.774L15 7.54801L22.5 4.88135Z" fill="#FFD24D"/>
<path d="M14.9999 7.54801V30L7.49992 27.3334L5.49994 16.1073L7.49992 4.88135L14.9999 7.54801Z" fill="#FEE191"/>
<path d="M7.5 4.88135V27.3334L0 30V7.54801L7.5 4.88135Z" fill="#FFD24D"/>
<path d="M25.5241 6.77402C25.5241 12.1982 19.4006 17.2218 19.4006 17.2218C19.0428 17.5154 18.4572 17.5154 18.0995 17.2218C18.0995 17.2218 11.976 12.1982 11.976 6.77402C11.976 3.03287 15.0088 0 18.75 0C22.4912 0 25.5241 3.03287 25.5241 6.77402Z" fill="#F14742"/>
<path d="M18.7499 10.1821C16.8707 10.1821 15.3419 8.65317 15.3419 6.77401C15.3419 4.89485 16.8707 3.36597 18.7499 3.36597C20.6291 3.36597 22.158 4.89485 22.158 6.77401C22.158 8.65317 20.6291 10.1821 18.7499 10.1821Z" fill="white"/>
</svg>
