<svg width="51" height="51" viewBox="0 0 51 51" fill="none" xmlns="http://www.w3.org/2000/svg">
<path d="M16.8844 42.4668C19.9695 42.5699 23.044 42.0544 25.9262 40.9508C28.8084 39.8472 31.4398 38.1778 33.6649 36.0414C35.89 33.905 37.6637 31.3449 38.881 28.5124C40.0984 25.6799 40.7348 22.6324 40.7526 19.5502C42.1664 17.8031 43.2163 15.7915 43.8404 13.6335C43.887 13.463 43.8832 13.2827 43.8296 13.1143C43.7759 12.9459 43.6747 12.7965 43.538 12.6843C43.4013 12.572 43.235 12.5016 43.0592 12.4815C42.8833 12.4614 42.7054 12.4925 42.5469 12.571C41.8072 12.9265 40.9745 13.0414 40.166 12.8993C39.3575 12.7573 38.614 12.3656 38.0403 11.7793C37.3079 10.9784 36.4219 10.3325 35.4349 9.8798C34.4479 9.42709 33.3799 9.1768 32.2943 9.14377C31.2086 9.11075 30.1274 9.29565 29.1146 9.68753C28.1019 10.0794 27.1782 10.6703 26.3983 11.4252C25.3305 12.4578 24.5483 13.7487 24.1279 15.1724C23.7075 16.5961 23.6631 18.1042 23.999 19.5502C17.0096 19.9668 12.2109 16.6543 8.37198 12.1127C8.25665 11.9822 8.10578 11.8882 7.93781 11.842C7.76983 11.7958 7.59201 11.7994 7.42606 11.8524C7.26012 11.9054 7.11322 12.0056 7.00332 12.1406C6.89342 12.2756 6.82527 12.4396 6.80719 12.6127C6.07585 16.6635 6.60341 20.8409 8.31902 24.5836C10.0346 28.3264 12.8561 31.4553 16.4045 33.5502C14.0253 36.2748 10.6841 37.9765 7.07842 38.3002C6.88525 38.3321 6.70692 38.4236 6.56841 38.5618C6.42989 38.7 6.33812 38.878 6.30593 39.0709C6.27374 39.2638 6.30274 39.4619 6.38888 39.6374C6.47502 39.813 6.61399 39.9573 6.78633 40.0502C9.92324 41.6155 13.3777 42.4422 16.8844 42.4668Z" fill="#231F20"/>
</svg>
