<svg width="51" height="51" viewBox="0 0 51 51" fill="none" xmlns="http://www.w3.org/2000/svg">
<path d="M25.9634 0.800049C19.1573 0.800049 18.3091 0.832865 15.6455 0.945379C12.971 1.07665 11.1618 1.49076 9.56557 2.10959C7.91921 2.75342 6.51699 3.60821 5.13198 4.99901C3.73758 6.382 2.87372 7.78217 2.23833 9.42613C1.6186 11.0201 1.20388 12.8266 1.07242 15.4972C0.95192 18.1585 0.92688 19.0039 0.92688 25.8C0.92688 32.5962 0.959744 33.4432 1.07242 36.1029C1.20388 38.7657 1.6186 40.58 2.23833 42.174C2.88311 43.8179 3.73915 45.2181 5.13198 46.6011C6.51699 47.9934 7.91921 48.8561 9.56557 49.4905C11.1618 50.1015 12.9788 50.5234 15.6455 50.6547C18.3107 50.775 19.1573 50.8 25.9634 50.8C32.7695 50.8 33.6177 50.7672 36.2813 50.6547C38.9481 50.5234 40.765 50.1 42.3613 49.4905C44.0077 48.8467 45.4099 47.9919 46.7949 46.6011C48.1893 45.2181 49.0531 43.8257 49.6885 42.174C50.3004 40.58 50.723 38.7657 50.8544 36.1029C50.9749 33.4416 51 32.5962 51 25.8C51 19.0039 50.9671 18.1569 50.8544 15.4972C50.723 12.8344 50.2989 11.0107 49.6885 9.42613C49.0438 7.78217 48.1877 6.382 46.7949 4.99901C45.4099 3.60665 44.0155 2.74404 42.3613 2.10959C40.765 1.49076 38.9481 1.07665 36.2813 0.945379C33.6162 0.825052 32.7695 0.800049 25.9634 0.800049ZM25.9634 5.30061C32.6475 5.30061 33.4456 5.33343 36.0873 5.44594C38.524 5.56002 39.8511 5.96632 40.7322 6.31011C41.9074 6.76486 42.7291 7.30242 43.618 8.18066C44.4897 9.05108 45.028 9.88087 45.4834 11.0545C45.8277 11.9343 46.2346 13.2594 46.3489 15.6925C46.4615 18.3304 46.4944 19.1289 46.4944 25.8016C46.4944 32.4743 46.4615 33.2729 46.3395 35.9107C46.208 38.3438 45.8011 39.669 45.4584 40.5488C44.9842 41.7224 44.4552 42.5428 43.582 43.4304C42.7009 44.3008 41.8621 44.8384 40.6962 45.2931C39.826 45.6369 38.4801 46.0432 36.0341 46.1573C33.3783 46.2698 32.5958 46.3026 25.8946 46.3026C19.1933 46.3026 18.4124 46.2698 15.7535 46.1479C13.3168 46.0166 11.9725 45.6103 11.0914 45.2681C9.90204 44.7946 9.08669 44.2664 8.21343 43.3944C7.33234 42.5146 6.77208 41.677 6.34015 40.5128C5.98959 39.644 5.58896 38.3 5.45906 35.8576C5.36986 33.2369 5.3276 32.4243 5.3276 25.7641C5.3276 19.107 5.36986 18.2929 5.45906 15.6394C5.58896 13.1969 5.98959 11.8561 6.34015 10.9841C6.77208 9.79492 7.33391 8.98232 8.21343 8.10252C9.08512 7.2321 9.90204 6.66953 11.0914 6.22885C11.9725 5.88662 13.284 5.48032 15.73 5.35843C18.3858 5.26311 19.1683 5.22873 25.8601 5.22873L25.9634 5.30061ZM25.9634 12.9688C18.8569 12.9688 13.1103 18.7148 13.1103 25.8032C13.1103 32.8994 18.8647 38.6376 25.9634 38.6376C33.07 38.6376 38.8166 32.8916 38.8166 25.8032C38.8166 18.707 33.0622 12.9688 25.9634 12.9688ZM25.9634 34.137C21.3499 34.137 17.6174 30.41 17.6174 25.8032C17.6174 21.1963 21.3499 17.4693 25.9634 17.4693C30.577 17.4693 34.3095 21.1963 34.3095 25.8032C34.3095 30.41 30.577 34.137 25.9634 34.137ZM42.3394 12.4562C42.3394 14.1173 40.9857 15.4581 39.3299 15.4581C37.6664 15.4581 36.3236 14.1158 36.3236 12.4562C36.3236 10.8044 37.6757 9.46051 39.3299 9.46051C40.9841 9.46051 42.3394 10.8044 42.3394 12.4562Z" fill="black"/>
</svg>
