<svg width="56" height="57" viewBox="0 0 56 57" fill="none" xmlns="http://www.w3.org/2000/svg">
<path d="M40.1745 42.0773C39.5444 42.7073 38.6898 43.0613 37.7987 43.0613C36.9076 43.0613 36.053 42.7073 35.4229 42.0773L28.0001 33.5933L20.5773 42.0745C20.2662 42.3906 19.8956 42.6421 19.4869 42.8143C19.0782 42.9866 18.6394 43.0762 18.1958 43.078C17.7523 43.0798 17.3128 42.9938 16.9026 42.8249C16.4925 42.656 16.1199 42.4075 15.8063 42.0939C15.4926 41.7803 15.2442 41.4076 15.0753 40.9975C14.9064 40.5874 14.8204 40.1479 14.8222 39.7043C14.824 39.2608 14.9136 38.822 15.0858 38.4133C15.258 38.0045 15.5095 37.6339 15.8257 37.3229L23.5481 28.5029L15.8229 19.6773C15.5067 19.3662 15.2552 18.9956 15.083 18.5869C14.9108 18.1781 14.8212 17.7393 14.8194 17.2958C14.8176 16.8523 14.9036 16.4128 15.0725 16.0026C15.2414 15.5925 15.4898 15.2199 15.8035 14.9062C16.1171 14.5926 16.4897 14.3442 16.8998 14.1753C17.31 14.0064 17.7495 13.9203 18.193 13.9221C18.6366 13.924 19.0754 14.0136 19.4841 14.1858C19.8928 14.358 20.2634 14.6095 20.5745 14.9257L28.0001 23.4125L35.4229 14.9257C35.734 14.6095 36.1045 14.358 36.5133 14.1858C36.922 14.0136 37.3608 13.924 37.8043 13.9221C38.2479 13.9203 38.6874 14.0064 39.0975 14.1753C39.5077 14.3442 39.8803 14.5926 40.1939 14.9062C40.5075 15.2199 40.756 15.5925 40.9249 16.0026C41.0938 16.4128 41.1798 16.8523 41.178 17.2958C41.1762 17.7393 41.0866 18.1781 40.9144 18.5869C40.7421 18.9956 40.4907 19.3662 40.1745 19.6773L32.4521 28.5029L40.1745 37.3229C40.4869 37.6349 40.7347 38.0055 40.9038 38.4134C41.0729 38.8213 41.1599 39.2585 41.1599 39.7001C41.1599 40.1416 41.0729 40.5788 40.9038 40.9867C40.7347 41.3946 40.4869 41.7652 40.1745 42.0773Z" fill="white"/>
</svg>
