<svg width="33" height="32" viewBox="0 0 33 32" fill="none" xmlns="http://www.w3.org/2000/svg">
<g clip-path="url(#clip0_167_19)">
<path fill-rule="evenodd" clip-rule="evenodd" d="M17.9132 21.4133C17.5382 21.7878 17.0299 21.9982 16.4999 21.9982C15.9699 21.9982 15.4615 21.7878 15.0865 21.4133L7.54253 13.8719C7.16752 13.4967 6.95691 12.9879 6.95703 12.4575C6.95716 11.927 7.16801 11.4183 7.5432 11.0433C7.91839 10.6683 8.42719 10.4576 8.95767 10.4578C9.48815 10.4579 9.99685 10.6687 10.3719 11.0439L16.4999 17.1719L22.6279 11.0439C23.0049 10.6794 23.51 10.4776 24.0344 10.4819C24.5588 10.4862 25.0605 10.6963 25.4315 11.067C25.8025 11.4376 26.0131 11.9391 26.0179 12.4635C26.0227 12.9879 25.8213 13.4932 25.4572 13.8706L17.9145 21.4146L17.9132 21.4133Z" fill="black"/>
</g>
<defs>
<clipPath id="clip0_167_19">
<rect width="32" height="32" fill="white" transform="translate(0.5)"/>
</clipPath>
</defs>
</svg>
