<svg width="252" height="67" viewBox="0 0 252 67" fill="none" xmlns="http://www.w3.org/2000/svg">
<path d="M24.9999 21.3333C26.3062 21.3332 27.5836 21.7168 28.6737 22.4366C29.7637 23.1563 30.6183 24.1804 31.1313 25.3817C31.6443 26.583 31.7931 27.9085 31.5592 29.1937C31.3253 30.4788 30.719 31.6669 29.8157 32.6104C28.9123 33.5539 27.7517 34.2112 26.478 34.5008C25.2042 34.7903 23.8735 34.6992 22.651 34.2389C21.4286 33.7786 20.3683 32.9693 19.6019 31.9116C18.8354 30.8539 18.3966 29.5943 18.3399 28.2893L18.3333 27.9999L18.3399 27.7106C18.4145 25.9943 19.1487 24.373 20.3895 23.1848C21.6304 21.9966 23.282 21.3334 24.9999 21.3333Z" fill="black"/>
</svg>
