<svg width="70" height="67" viewBox="0 0 70 67" fill="none" xmlns="http://www.w3.org/2000/svg">
<g clip-path="url(#clip0_148_6)">
<path fill-rule="evenodd" clip-rule="evenodd" d="M20 31.0096H5C3.67392 31.0096 2.40215 30.5069 1.46447 29.6123C0.526784 28.7176 0 27.5041 0 26.2389V11.9267C0 10.6614 0.526784 9.448 1.46447 8.55332C2.40215 7.65863 3.67392 7.15601 5 7.15601H20C21.3261 7.15601 22.5979 7.65863 23.5355 8.55332C24.4732 9.448 25 10.6614 25 11.9267V26.2389C25 27.5041 24.4732 28.7176 23.5355 29.6123C22.5979 30.5069 21.3261 31.0096 20 31.0096ZM40 10.734C39.0054 10.734 38.0516 11.111 37.3484 11.782C36.6451 12.453 36.25 13.3631 36.25 14.3121C36.25 15.261 36.6451 16.1711 37.3484 16.8421C38.0516 17.5131 39.0054 17.8901 40 17.8901H43.75V51.0991C45.5615 49.4085 47.8686 48.2829 50.3656 47.8714C52.8626 47.4598 55.4317 47.7818 57.7326 48.7947C60.0335 49.8076 61.9576 51.4635 63.25 53.5431C64.5425 55.6227 65.1423 58.0279 64.97 60.4401C68.105 59.3906 70 56.323 70 52.4778C70 43.2846 62.1 35.203 51.25 34.621V30.0507C52.35 30.6613 53.635 31.0096 55 31.0096H60C60.663 31.0096 61.2989 30.7583 61.7678 30.3109C62.2366 29.8636 62.5 29.2569 62.5 28.6242V19.0828C62.5 18.4502 62.2366 17.8434 61.7678 17.3961C61.2989 16.9487 60.663 16.6974 60 16.6974H55C53.635 16.6974 52.35 17.0457 51.25 17.6516V14.3121C51.25 13.3631 50.8549 12.453 50.1516 11.782C49.4484 11.111 48.4946 10.734 47.5 10.734H40ZM40.05 60.8265C39.7824 58.3395 40.3441 55.8352 41.655 53.6705H41.25C40.2554 53.6705 39.3016 53.2935 38.5984 52.6225C37.8951 51.9515 37.5 51.0414 37.5 50.0924V47.7071C37.5 45.9842 37.1443 44.2782 36.4533 42.6865C35.7623 41.0947 34.7495 39.6485 33.4727 38.4302C32.1959 37.212 30.6801 36.2456 29.0119 35.5863C27.3437 34.927 25.5557 34.5876 23.75 34.5876H13.75C10.1033 34.5876 6.60591 35.9698 4.02728 38.4302C1.44866 40.8906 0 44.2276 0 47.7071L0 57.2485C0 59.2236 1.68 60.8265 3.75 60.8265H5.05C4.8755 59.1675 5.06737 57.492 5.61323 55.9081C6.15908 54.3242 7.04681 52.867 8.21916 51.6305C9.3915 50.3941 10.8224 49.4058 12.4197 48.7294C14.0169 48.053 15.745 47.7036 17.4925 47.7036C19.24 47.7036 20.9681 48.053 22.5653 48.7294C24.1626 49.4058 25.5935 50.3941 26.7658 51.6305C27.9382 52.867 28.8259 54.3242 29.3718 55.9081C29.9176 57.492 30.1095 59.1675 29.935 60.8265H40.05ZM9.99 59.6291C9.99 61.5283 10.7807 63.3497 12.1882 64.6926C13.5956 66.0355 15.5046 66.7899 17.495 66.7899C19.4855 66.7899 21.3944 66.0355 22.8018 64.6926C24.2093 63.3497 25 61.5283 25 59.6291C25 57.7299 24.2093 55.9085 22.8018 54.5656C21.3944 53.2227 19.4855 52.4683 17.495 52.4683C15.5046 52.4683 13.5956 53.2227 12.1882 54.5656C10.7807 55.9085 9.99 57.7299 9.99 59.6291ZM44.99 59.6291C44.99 61.5283 45.7807 63.3497 47.1882 64.6926C48.5956 66.0355 50.5045 66.7899 52.495 66.7899C54.4854 66.7899 56.3944 66.0355 57.8018 64.6926C59.2093 63.3497 60 61.5283 60 59.6291C60 57.7299 59.2093 55.9085 57.8018 54.5656C56.3944 53.2227 54.4854 52.4683 52.495 52.4683C50.5045 52.4683 48.5956 53.2227 47.1882 54.5656C45.7807 55.9085 44.99 57.7299 44.99 59.6291Z" fill="black"/>
</g>
<defs>
<clipPath id="clip0_148_6">
<rect width="70" height="66.79" fill="white"/>
</clipPath>
</defs>
</svg>
