<svg width="32" height="32" viewBox="0 0 32 32" fill="none" xmlns="http://www.w3.org/2000/svg">
<path d="M15.9999 9.33325C17.3062 9.33318 18.5836 9.71684 19.6737 10.4366C20.7637 11.1563 21.6183 12.1804 22.1313 13.3817C22.6443 14.583 22.7931 15.9085 22.5592 17.1937C22.3253 18.4788 21.719 19.6669 20.8157 20.6104C19.9123 21.5539 18.7517 22.2112 17.478 22.5008C16.2042 22.7903 14.8735 22.6992 13.651 22.2389C12.4286 21.7786 11.3683 20.9693 10.6019 19.9116C9.83543 18.8539 9.39661 17.5943 9.33992 16.2893L9.33325 15.9999L9.33992 15.7106C9.41448 13.9943 10.1487 12.373 11.3895 11.1848C12.6304 9.99664 14.282 9.33335 15.9999 9.33325Z" fill="black"/>
</svg>
