<svg width="66" height="57" viewBox="0 0 66 57" fill="none" xmlns="http://www.w3.org/2000/svg">
<path d="M49.3333 23.5332H38.4444V14.1999C38.4444 12.9622 37.8708 11.7752 36.8497 10.9C35.8287 10.0249 34.4439 9.5332 32.9999 9.5332C31.556 9.5332 30.1712 10.0249 29.1501 10.9C28.1291 11.7752 27.5555 12.9622 27.5555 14.1999L27.7488 23.5332H16.6666C15.2227 23.5332 13.8378 24.0249 12.8168 24.9C11.7958 25.7752 11.2222 26.9622 11.2222 28.1999C11.2222 29.4375 11.7958 30.6245 12.8168 31.4997C13.8378 32.3749 15.2227 32.8665 16.6666 32.8665L27.7488 32.7009L27.5555 42.1999C27.5555 43.4375 28.1291 44.6245 29.1501 45.4997C30.1712 46.3749 31.556 46.8665 32.9999 46.8665C34.4439 46.8665 35.8287 46.3749 36.8497 45.4997C37.8708 44.6245 38.4444 43.4375 38.4444 42.1999V32.7009L49.3333 32.8665C50.7772 32.8665 52.1621 32.3749 53.1831 31.4997C54.2041 30.6245 54.7777 29.4375 54.7777 28.1999C54.7777 26.9622 54.2041 25.7752 53.1831 24.9C52.1621 24.0249 50.7772 23.5332 49.3333 23.5332Z" fill="#F8F8F8"/>
</svg>
