<svg width="51" height="51" viewBox="0 0 51 51" fill="none" xmlns="http://www.w3.org/2000/svg">
<path d="M25.9372 0.300049C19.1311 0.300049 18.2829 0.332865 15.6193 0.445379C12.9447 0.576646 11.1356 0.99076 9.53932 1.60959C7.89297 2.25342 6.49074 3.10821 5.10574 4.49901C3.71134 5.882 2.84747 7.28217 2.21209 8.92613C1.59236 10.5201 1.17764 12.3266 1.04618 14.9972C0.925674 17.6585 0.900635 18.5039 0.900635 25.3C0.900635 32.0962 0.933499 32.9432 1.04618 35.6029C1.17764 38.2657 1.59236 40.08 2.21209 41.674C2.85686 43.3179 3.7129 44.7181 5.10574 46.1011C6.49074 47.4934 7.89297 48.3561 9.53932 48.9905C11.1356 49.6015 12.9525 50.0234 15.6193 50.1547C18.2844 50.275 19.1311 50.3 25.9372 50.3C32.7433 50.3 33.5915 50.2672 36.2551 50.1547C38.9218 50.0234 40.7388 49.6 42.335 48.9905C43.9814 48.3467 45.3836 47.4919 46.7686 46.1011C48.163 44.7181 49.0269 43.3257 49.6623 41.674C50.2742 40.08 50.6967 38.2657 50.8282 35.6029C50.9487 32.9416 50.9737 32.0962 50.9737 25.3C50.9737 18.5039 50.9409 17.6569 50.8282 14.9972C50.6967 12.3344 50.2726 10.5107 49.6623 8.92613C49.0175 7.28217 48.1615 5.882 46.7686 4.49901C45.3836 3.10665 43.9892 2.24404 42.335 1.60959C40.7388 0.99076 38.9218 0.576646 36.2551 0.445379C33.5899 0.325052 32.7433 0.300049 25.9372 0.300049ZM25.9372 4.80061C32.6212 4.80061 33.4194 4.83343 36.061 4.94594C38.4977 5.06002 39.8248 5.46632 40.7059 5.81011C41.8812 6.26486 42.7028 6.80242 43.5917 7.68066C44.4634 8.55108 45.0018 9.38087 45.4572 10.5545C45.8015 11.4343 46.2084 12.7594 46.3226 15.1925C46.4353 17.8304 46.4682 18.6289 46.4682 25.3016C46.4682 31.9743 46.4353 32.7729 46.3132 35.4107C46.1818 37.8438 45.7749 39.169 45.4321 40.0488C44.958 41.2224 44.429 42.0428 43.5557 42.9304C42.6746 43.8008 41.8358 44.3384 40.6699 44.7931C39.7998 45.1369 38.4539 45.5432 36.0078 45.6573C33.3521 45.7698 32.5696 45.8026 25.8683 45.8026C19.1671 45.8026 18.3862 45.7698 15.7273 45.6479C13.2906 45.5166 11.9463 45.1103 11.0652 44.7681C9.8758 44.2946 9.06044 43.7664 8.18718 42.8944C7.3061 42.0146 6.74584 41.177 6.3139 40.0128C5.96335 39.144 5.56271 37.8 5.43282 35.3576C5.34361 32.7369 5.30136 31.9243 5.30136 25.2641C5.30136 18.607 5.34361 17.7929 5.43282 15.1394C5.56271 12.6969 5.96335 11.3561 6.3139 10.4841C6.74584 9.29492 7.30766 8.48232 8.18718 7.60252C9.05888 6.7321 9.8758 6.16953 11.0652 5.72885C11.9463 5.38662 13.2577 4.98032 15.7038 4.85843C18.3596 4.76311 19.142 4.72873 25.8339 4.72873L25.9372 4.80061ZM25.9372 12.4688C18.8306 12.4688 13.084 18.2148 13.084 25.3032C13.084 32.3994 18.8384 38.1376 25.9372 38.1376C33.0438 38.1376 38.7904 32.3916 38.7904 25.3032C38.7904 18.207 33.0359 12.4688 25.9372 12.4688ZM25.9372 33.637C21.3236 33.637 17.5911 29.91 17.5911 25.3032C17.5911 20.6963 21.3236 16.9693 25.9372 16.9693C30.5507 16.9693 34.2832 20.6963 34.2832 25.3032C34.2832 29.91 30.5507 33.637 25.9372 33.637ZM42.3131 11.9562C42.3131 13.6173 40.9594 14.9581 39.3037 14.9581C37.6401 14.9581 36.2974 13.6158 36.2974 11.9562C36.2974 10.3044 37.6495 8.96051 39.3037 8.96051C40.9579 8.96051 42.3131 10.3044 42.3131 11.9562Z" fill="black"/>
</svg>
