<svg width="51" height="36" viewBox="0 0 51 36" fill="none" xmlns="http://www.w3.org/2000/svg">
<path d="M49.0746 6.21904C48.4798 4.11058 46.8331 2.45695 44.7122 1.87239C40.8069 0.829884 25.1073 0.829884 25.1073 0.829884C25.1073 0.829884 9.43741 0.804876 5.49138 1.87239C3.3814 2.45851 1.72692 4.11058 1.13838 6.21904C0.398011 10.2156 0.0301736 14.2606 0.0473915 18.3243C0.0395652 22.3615 0.405837 26.4002 1.13838 30.3718C1.72692 32.4802 3.3814 34.1338 5.49138 34.7278C9.39672 35.7703 25.1073 35.7703 25.1073 35.7703C25.1073 35.7703 40.7677 35.7703 44.7122 34.7278C46.8331 34.1338 48.4798 32.4818 49.0746 30.3718C49.7931 26.4002 50.1437 22.3615 50.1186 18.3243C50.1437 14.2606 49.8009 10.2156 49.0746 6.21904ZM20.0922 25.8063V10.8095L33.1606 18.3243L20.0922 25.8063Z" fill="black"/>
</svg>
